<?xml version="1.0" encoding="iso-8859-1"?>
<!-- Generator: Adobe Illustrator 16.0.0, SVG Export Plug-In . SVG Version: 6.00 Build 0)  -->
<!DOCTYPE svg PUBLIC "-//W3C//DTD SVG 1.1//EN" "http://www.w3.org/Graphics/SVG/1.1/DTD/svg11.dtd">
<svg version="1.1" id="Capa_1" xmlns="http://www.w3.org/2000/svg" xmlns:xlink="http://www.w3.org/1999/xlink" x="0px" y="0px"
	 width="43.648px" height="43.648px" viewBox="0 0 43.648 43.648" style="enable-background:new 0 0 43.648 43.648;"
	 xml:space="preserve">
<g>
	<g>
		<path d="M21.824,0C9.79,0,0,9.79,0,21.824c0,12.033,9.79,21.824,21.824,21.824s21.824-9.791,21.824-21.824
			C43.648,9.79,33.858,0,21.824,0z M21.824,40.648C11.444,40.648,3,32.205,3,21.824C3,11.445,11.444,3.001,21.824,3.001
			s18.824,8.444,18.824,18.823C40.648,32.204,32.204,40.648,21.824,40.648z"/>
		<path d="M21.824,10.006c-0.828,0-1.5,0.672-1.5,1.5v19c0,0.828,0.672,1.5,1.5,1.5s1.5-0.672,1.5-1.5v-19
			C23.324,10.678,22.652,10.006,21.824,10.006z"/>
	</g>
</g>
<g>
</g>
<g>
</g>
<g>
</g>
<g>
</g>
<g>
</g>
<g>
</g>
<g>
</g>
<g>
</g>
<g>
</g>
<g>
</g>
<g>
</g>
<g>
</g>
<g>
</g>
<g>
</g>
<g>
</g>
</svg>
